<svg width="257" height="113" viewBox="0 0 257 113" fill="none" xmlns="http://www.w3.org/2000/svg">
<path d="M72 113L113 0L56.5 56.5L72 113Z" fill="url(#paint0_linear_2401_12)"/>
<path d="M113 0L0 41L56.5 56.5L113 0Z" fill="url(#paint1_linear_2401_12)"/>
<path d="M113 0L0 41L56.5 56.5L113 0Z" fill="url(#paint2_linear_2401_12)"/>
<path d="M113 0L0 41L56.5 56.5L113 0Z" fill="url(#paint3_linear_2401_12)"/>
<path d="M129.73 60V33.3963H119.196V25.7043H149.915V33.3963H139.43V60H129.73ZM168.013 60V55.0516L167.376 53.8268V44.7139C167.376 43.2441 166.919 42.1172 166.005 41.3333C165.123 40.5168 163.702 40.1085 161.742 40.1085C160.468 40.1085 159.178 40.3208 157.872 40.7454C156.565 41.1374 155.455 41.6926 154.54 42.4112L151.404 36.091C152.907 35.1111 154.703 34.3599 156.794 33.8373C158.917 33.282 161.024 33.0044 163.114 33.0044C167.425 33.0044 170.757 34.0006 173.109 35.993C175.493 37.9528 176.685 41.0394 176.685 45.2528V60H168.013ZM160.174 60.4409C158.051 60.4409 156.255 60.0817 154.785 59.3631C153.315 58.6445 152.188 57.6646 151.404 56.4234C150.653 55.1823 150.278 53.7941 150.278 52.259C150.278 50.6258 150.686 49.2213 151.502 48.0455C152.352 46.837 153.642 45.9224 155.373 45.3018C157.104 44.6486 159.341 44.322 162.085 44.322H168.356V49.1724H163.359C161.856 49.1724 160.795 49.4173 160.174 49.9073C159.586 50.3972 159.292 51.0505 159.292 51.867C159.292 52.6836 159.603 53.3368 160.223 53.8268C160.844 54.3167 161.693 54.5617 162.771 54.5617C163.784 54.5617 164.698 54.3167 165.515 53.8268C166.364 53.3042 166.985 52.5203 167.376 51.4751L168.65 54.9046C168.16 56.7337 167.197 58.1219 165.76 59.0691C164.355 59.9837 162.493 60.4409 160.174 60.4409ZM192.213 60.4409C189.959 60.4409 187.754 60.1796 185.599 59.657C183.476 59.1344 181.761 58.4812 180.454 57.6973L183.247 51.3281C184.488 52.0793 185.942 52.6836 187.607 53.1409C189.273 53.5655 190.906 53.7778 192.507 53.7778C194.075 53.7778 195.153 53.6145 195.74 53.2878C196.361 52.9612 196.671 52.5203 196.671 51.965C196.671 51.4424 196.377 51.0668 195.789 50.8381C195.234 50.5768 194.483 50.3809 193.536 50.2502C192.621 50.1196 191.609 49.9726 190.498 49.8093C189.388 49.646 188.261 49.4337 187.118 49.1724C186.007 48.8784 184.978 48.4538 184.031 47.8985C183.116 47.3106 182.381 46.5267 181.826 45.5468C181.271 44.5669 180.993 43.3258 180.993 41.8233C180.993 40.1248 181.483 38.6223 182.463 37.3158C183.476 35.9767 184.945 34.9315 186.873 34.1802C188.8 33.3963 191.151 33.0044 193.928 33.0044C195.789 33.0044 197.668 33.2004 199.562 33.5923C201.489 33.9516 203.106 34.5069 204.412 35.2581L201.62 41.5783C200.313 40.8271 199.007 40.3208 197.7 40.0595C196.394 39.7655 195.153 39.6186 193.977 39.6186C192.409 39.6186 191.298 39.7982 190.645 40.1575C190.025 40.5168 189.714 40.9577 189.714 41.4803C189.714 42.0029 189.992 42.4112 190.547 42.7052C191.102 42.9665 191.837 43.1788 192.752 43.3421C193.699 43.4727 194.728 43.6197 195.838 43.783C196.949 43.9137 198.06 44.126 199.17 44.42C200.313 44.7139 201.342 45.1549 202.257 45.7428C203.204 46.298 203.955 47.0656 204.51 48.0455C205.066 48.9927 205.343 50.2176 205.343 51.72C205.343 53.3532 204.837 54.823 203.824 56.1295C202.845 57.436 201.375 58.4812 199.415 59.2651C197.488 60.049 195.087 60.4409 192.213 60.4409ZM217.096 55.1006L217.341 43.979L228.168 33.4453H239.192L227.188 45.8408L222.436 49.6623L217.096 55.1006ZM209.355 60V23.6466H218.663V60H209.355ZM228.854 60L220.721 49.8093L226.502 42.6562L240.123 60H228.854Z" fill="white"/>
<path d="M107.187 93V68.9776H108.662L119.816 88.2298H119.026L130.145 68.9776H131.587L131.621 93H129.905L129.871 71.6201H130.351L119.816 89.8085H118.958L108.388 71.6201H108.903V93H107.187ZM150.738 93V88.9162L150.669 88.2985V81.5722C150.669 79.9021 150.212 78.6323 149.296 77.7629C148.404 76.8936 147.089 76.4589 145.35 76.4589C144.114 76.4589 142.959 76.6762 141.884 77.1109C140.831 77.5227 139.928 78.0604 139.173 78.7238L138.315 77.4884C139.207 76.6877 140.282 76.0699 141.541 75.6352C142.799 75.1777 144.114 74.9489 145.487 74.9489C147.706 74.9489 149.411 75.5094 150.601 76.6305C151.79 77.7515 152.385 79.4216 152.385 81.6408V93H150.738ZM144.286 93.1373C142.959 93.1373 141.804 92.9314 140.82 92.5196C139.859 92.0849 139.116 91.4786 138.589 90.7007C138.086 89.9228 137.834 89.0306 137.834 88.0239C137.834 87.1088 138.04 86.2852 138.452 85.5531C138.887 84.7981 139.596 84.1918 140.58 83.7342C141.564 83.2538 142.879 83.0136 144.526 83.0136H151.115V84.3519H144.561C142.707 84.3519 141.403 84.6951 140.648 85.3815C139.916 86.0678 139.55 86.9258 139.55 87.9553C139.55 89.0992 139.985 90.0144 140.854 90.7007C141.724 91.3871 142.948 91.7302 144.526 91.7302C146.036 91.7302 147.306 91.3871 148.336 90.7007C149.388 90.0144 150.166 89.0191 150.669 87.7151L151.15 88.8819C150.669 90.1859 149.846 91.2269 148.679 92.0048C147.535 92.7598 146.071 93.1373 144.286 93.1373ZM168.206 74.9489C169.67 74.9489 170.94 75.2349 172.015 75.8068C173.113 76.3559 173.96 77.2024 174.555 78.3463C175.172 79.4674 175.481 80.863 175.481 82.5331V93H173.765V82.6704C173.765 80.6571 173.25 79.1242 172.221 78.0718C171.214 77.0194 169.796 76.4932 167.966 76.4932C166.57 76.4932 165.357 76.7792 164.328 77.3511C163.298 77.9231 162.509 78.7238 161.96 79.7534C161.434 80.7829 161.171 82.0183 161.171 83.4597V93H159.455V75.0862H161.102V80.0622L160.862 79.5131C161.411 78.0947 162.315 76.9851 163.573 76.1843C164.831 75.3607 166.375 74.9489 168.206 74.9489ZM193.836 93V88.9162L193.767 88.2985V81.5722C193.767 79.9021 193.31 78.6323 192.395 77.7629C191.502 76.8936 190.187 76.4589 188.448 76.4589C187.213 76.4589 186.057 76.6762 184.982 77.1109C183.93 77.5227 183.026 78.0604 182.271 78.7238L181.413 77.4884C182.305 76.6877 183.381 76.0699 184.639 75.6352C185.897 75.1777 187.213 74.9489 188.585 74.9489C190.805 74.9489 192.509 75.5094 193.699 76.6305C194.888 77.7515 195.483 79.4216 195.483 81.6408V93H193.836ZM187.384 93.1373C186.057 93.1373 184.902 92.9314 183.918 92.5196C182.957 92.0849 182.214 91.4786 181.688 90.7007C181.184 89.9228 180.933 89.0306 180.933 88.0239C180.933 87.1088 181.138 86.2852 181.55 85.5531C181.985 84.7981 182.694 84.1918 183.678 83.7342C184.662 83.2538 185.977 83.0136 187.624 83.0136H194.213V84.3519H187.659C185.806 84.3519 184.502 84.6951 183.747 85.3815C183.014 86.0678 182.648 86.9258 182.648 87.9553C182.648 89.0992 183.083 90.0144 183.952 90.7007C184.822 91.3871 186.046 91.7302 187.624 91.7302C189.134 91.7302 190.404 91.3871 191.434 90.7007C192.486 90.0144 193.264 89.0191 193.767 87.7151L194.248 88.8819C193.767 90.1859 192.944 91.2269 191.777 92.0048C190.633 92.7598 189.169 93.1373 187.384 93.1373ZM210 99.7949C208.376 99.7949 206.831 99.5432 205.367 99.0399C203.903 98.5366 202.713 97.8388 201.798 96.9465L202.725 95.6425C203.617 96.4661 204.681 97.1067 205.916 97.5643C207.174 98.0218 208.524 98.2506 209.966 98.2506C212.368 98.2506 214.129 97.6901 215.25 96.569C216.394 95.448 216.966 93.6864 216.966 91.2841V86.308L217.31 83.6313L217.035 80.9545V75.0862H218.682V91.0782C218.682 94.0753 217.95 96.2716 216.486 97.6672C215.045 99.0857 212.883 99.7949 210 99.7949ZM209.519 92.348C207.826 92.348 206.305 91.9819 204.955 91.2498C203.628 90.4948 202.564 89.4653 201.764 88.1612C200.986 86.8343 200.597 85.3243 200.597 83.6313C200.597 81.9154 200.986 80.4054 201.764 79.1013C202.564 77.7973 203.628 76.7792 204.955 76.0471C206.305 75.3149 207.826 74.9489 209.519 74.9489C211.144 74.9489 212.597 75.3035 213.878 76.0127C215.182 76.6991 216.211 77.6943 216.966 78.9984C217.721 80.2796 218.099 81.8239 218.099 83.6313C218.099 85.4158 217.721 86.9601 216.966 88.2642C216.211 89.5682 215.182 90.5749 213.878 91.2841C212.597 91.9933 211.144 92.348 209.519 92.348ZM209.657 90.8037C211.098 90.8037 212.368 90.5062 213.466 89.9114C214.564 89.2937 215.422 88.4472 216.04 87.3719C216.68 86.2737 217.001 85.0269 217.001 83.6313C217.001 82.2128 216.68 80.9659 216.04 79.8906C215.422 78.8154 214.564 77.9803 213.466 77.3854C212.368 76.7906 211.098 76.4932 209.657 76.4932C208.261 76.4932 207.003 76.7906 205.882 77.3854C204.784 77.9803 203.914 78.8154 203.274 79.8906C202.656 80.9659 202.347 82.2128 202.347 83.6313C202.347 85.0269 202.656 86.2737 203.274 87.3719C203.914 88.4472 204.784 89.2937 205.882 89.9114C207.003 90.5062 208.261 90.8037 209.657 90.8037ZM233.221 93.1373C231.413 93.1373 229.812 92.7483 228.416 91.9705C227.043 91.1926 225.957 90.1173 225.156 88.7446C224.378 87.3719 223.989 85.8047 223.989 84.0431C223.989 82.2586 224.355 80.6914 225.087 79.3416C225.842 77.9688 226.872 76.8936 228.176 76.1157C229.48 75.3378 230.944 74.9489 232.569 74.9489C234.193 74.9489 235.646 75.3264 236.927 76.0814C238.231 76.8364 239.249 77.9002 239.981 79.2729C240.736 80.6228 241.114 82.1899 241.114 83.9744C241.114 84.0431 241.102 84.1232 241.079 84.2147C241.079 84.2833 241.079 84.3634 241.079 84.4549H225.259V83.1165H240.153L239.466 83.7685C239.489 82.373 239.192 81.1261 238.574 80.0279C237.979 78.9069 237.167 78.0375 236.138 77.4198C235.108 76.7792 233.918 76.4589 232.569 76.4589C231.242 76.4589 230.052 76.7792 229 77.4198C227.97 78.0375 227.158 78.9069 226.563 80.0279C225.968 81.1261 225.671 82.3844 225.671 83.8029V84.1117C225.671 85.5759 225.991 86.88 226.632 88.0239C227.295 89.145 228.199 90.0258 229.343 90.6664C230.487 91.2841 231.791 91.593 233.255 91.593C234.399 91.593 235.463 91.3871 236.446 90.9753C237.453 90.5634 238.3 89.9343 238.986 89.0878L239.981 90.2203C239.203 91.1812 238.22 91.9133 237.03 92.4166C235.863 92.897 234.593 93.1373 233.221 93.1373ZM246.422 93V75.0862H248.069V79.9936L247.898 79.4445C248.401 78.0032 249.247 76.8936 250.437 76.1157C251.627 75.3378 253.114 74.9489 254.898 74.9489V76.6305C254.83 76.6305 254.761 76.6305 254.693 76.6305C254.624 76.6076 254.555 76.5961 254.487 76.5961C252.496 76.5961 250.94 77.2253 249.819 78.4836C248.698 79.7191 248.138 81.4464 248.138 83.6656V93H246.422Z" fill="white"/>
<defs>
<linearGradient id="paint0_linear_2401_12" x1="113" y1="1.5" x2="71.5" y2="113" gradientUnits="userSpaceOnUse">
<stop stop-color="#A4CC0C"/>
<stop offset="1" stop-color="#099BC4"/>
</linearGradient>
<linearGradient id="paint1_linear_2401_12" x1="113" y1="1.5" x2="71.5" y2="113" gradientUnits="userSpaceOnUse">
<stop stop-color="#A4CC0C"/>
<stop offset="1" stop-color="#099BC4"/>
</linearGradient>
<linearGradient id="paint2_linear_2401_12" x1="2.57045e-06" y1="41" x2="113" y2="-4.59701e-06" gradientUnits="userSpaceOnUse">
<stop stop-color="#0D9CBF"/>
<stop offset="1" stop-color="#93D500"/>
</linearGradient>
<linearGradient id="paint3_linear_2401_12" x1="2.57045e-06" y1="41" x2="113" y2="-4.59701e-06" gradientUnits="userSpaceOnUse">
<stop stop-color="#0D9CBF"/>
<stop offset="1" stop-color="#93D500"/>
</linearGradient>
</defs>
</svg>
